<mxfile host="app.diagrams.net" modified="2023-12-12T08:00:00.125Z" agent="Mozilla/5.0 (Windows NT 10.0; Win64; x64; rv:120.0) Gecko/20100101 Firefox/120.0" version="22.1.7" etag="soz7X4DllqpZA2C8Q23_" type="github">
  <diagram name="Page-1" id="8gySsobPhQTu53RrTIbk">
    <mxGraphModel>
      <root>
        <mxCell id="0" />
        <mxCell id="1" parent="0" />
      </root>
    </mxGraphModel>
  </diagram>
</mxfile>
